<?xml version="1.0" encoding="UTF-8" standalone="no"?>
<!DOCTYPE svg PUBLIC "-//W3C//DTD SVG 1.1//EN" "http://www.w3.org/Graphics/SVG/1.1/DTD/svg11.dtd">
<svg width="100%" height="100%" viewBox="0 0 95 96" version="1.1" xmlns="http://www.w3.org/2000/svg" xmlns:xlink="http://www.w3.org/1999/xlink" xml:space="preserve" xmlns:serif="http://www.serif.com/" style="fill-rule:evenodd;clip-rule:evenodd;stroke-linejoin:round;stroke-miterlimit:2;">
    <g transform="matrix(1,0,0,1,-436.567,-621.744)">
        <g transform="matrix(0.268757,0,0,0.268757,338.952,617.3)">
            <path d="M397.61,372.828L366.922,372.828C366.427,372.828 365.953,372.734 365.5,372.542C365.042,372.354 364.641,372.083 364.297,371.734C363.948,371.385 363.677,370.984 363.49,370.526C363.302,370.073 363.208,369.599 363.208,369.104C363.208,368.615 363.302,368.141 363.49,367.682C363.677,367.229 363.948,366.823 364.297,366.474C364.641,366.125 365.042,365.859 365.5,365.667C365.953,365.479 366.427,365.38 366.922,365.38L394.599,365.38L394.599,239.969C394.599,239.401 394.719,238.859 394.969,238.349C395.214,237.839 395.557,237.401 396.005,237.047L419.266,218.625C419.589,218.391 419.943,218.203 420.323,218.078C420.703,217.953 421.094,217.891 421.495,217.891C421.896,217.891 422.292,217.953 422.672,218.078C423.052,218.203 423.406,218.391 423.729,218.625L446.255,235.688C446.719,236.036 447.083,236.474 447.344,236.995C447.599,237.521 447.729,238.073 447.724,238.656L447.724,365.38L472.37,365.38L472.37,262.875C472.38,262.177 472.573,261.531 472.948,260.938C473.318,260.349 473.818,259.896 474.448,259.583C475.073,259.271 475.734,259.146 476.432,259.203C477.13,259.26 477.76,259.5 478.323,259.911L498.708,275.344L518.984,250.432C519.224,250.115 519.505,249.849 519.828,249.62C520.151,249.396 520.505,249.229 520.88,249.115C521.26,249 521.646,248.948 522.042,248.958C522.438,248.969 522.818,249.036 523.193,249.172C523.563,249.302 523.906,249.49 524.219,249.729C524.531,249.969 524.802,250.25 525.026,250.578C525.25,250.901 525.417,251.255 525.526,251.635C525.635,252.016 525.688,252.401 525.672,252.797L525.672,365.38L550.141,365.38L550.141,213.766C550.124,213.526 550.131,213.283 550.161,213.036C550.255,212.323 550.526,211.688 550.99,211.135L596.776,154.839C597.01,154.531 597.286,154.266 597.609,154.042C597.927,153.818 598.271,153.651 598.641,153.536C599.016,153.422 599.396,153.365 599.781,153.37C600.172,153.375 600.552,153.438 600.922,153.557C601.292,153.682 601.63,153.859 601.943,154.089C602.26,154.318 602.531,154.594 602.755,154.906C602.984,155.219 603.161,155.563 603.281,155.932C603.401,156.302 603.464,156.682 603.469,157.073L603.469,365.38L627.932,365.38L627.932,118.741C627.894,118.581 627.867,118.417 627.849,118.25C627.802,117.76 627.849,117.276 627.99,116.807C628.13,116.333 628.359,115.901 628.672,115.521L645.396,94.958C645.729,94.547 646.13,94.224 646.599,93.99C647.068,93.75 647.568,93.62 648.094,93.594C648.615,93.568 649.125,93.651 649.615,93.839C650.104,94.031 650.536,94.313 650.906,94.688L679.901,123.682C680.003,123.786 680.098,123.894 680.185,124.005C680.789,124.692 681.088,125.508 681.083,126.448L681.083,365.38L712.974,365.38C713.469,365.38 713.943,365.479 714.396,365.667C714.854,365.859 715.255,366.125 715.604,366.474C715.948,366.823 716.219,367.229 716.406,367.682C716.594,368.141 716.688,368.615 716.688,369.104C716.688,369.599 716.594,370.073 716.406,370.526C716.219,370.984 715.948,371.385 715.604,371.734C715.255,372.083 714.854,372.354 714.396,372.542C713.943,372.734 713.469,372.828 712.974,372.828L678.075,372.828C677.87,372.869 677.661,372.891 677.448,372.896L631.656,372.896C631.416,372.896 631.178,372.873 630.945,372.828L600.464,372.828C600.207,372.879 599.945,372.901 599.677,372.896L553.885,372.896C553.643,372.896 553.405,372.873 553.172,372.828L522.67,372.828C522.412,372.879 522.148,372.901 521.88,372.896L476.094,372.896C475.851,372.896 475.613,372.873 475.38,372.828L444.718,372.828C444.519,372.867 444.318,372.889 444.115,372.896L398.323,372.896C398.08,372.896 397.842,372.873 397.61,372.828ZM499.354,252.974C498.526,252.969 497.786,252.719 497.125,252.214L421.745,195.167L400.776,213.521C400.229,214 399.589,214.297 398.865,214.401C398.141,214.51 397.448,214.411 396.781,214.109C396.115,213.807 395.583,213.344 395.193,212.729C394.797,212.115 394.599,211.443 394.599,210.708L394.599,174.38C394.599,173.219 395.042,172.26 395.917,171.5L418.464,152.609C418.781,152.344 419.135,152.141 419.521,151.99C419.906,151.844 420.307,151.76 420.724,151.75C421.135,151.734 421.542,151.786 421.938,151.906C422.333,152.031 422.698,152.214 423.036,152.453L493.604,203.464L620.729,48.255L606.635,35.385C606.115,34.917 605.76,34.349 605.563,33.677C605.365,33.005 605.359,32.333 605.536,31.661C605.719,30.984 606.063,30.406 606.568,29.927C607.073,29.448 607.667,29.13 608.349,28.984L665.672,16.63C666.219,16.505 666.766,16.505 667.318,16.635C667.865,16.766 668.354,17.01 668.792,17.365C669.708,18.115 670.172,19.078 670.177,20.266L670.177,82.042C670.156,82.755 669.948,83.406 669.552,83.995C669.161,84.589 668.641,85.031 667.995,85.323C667.344,85.62 666.672,85.719 665.964,85.625C665.26,85.531 664.635,85.26 664.089,84.807L648.807,71.427L503.172,250.453L502.255,251.589C501.901,252.031 501.474,252.37 500.964,252.615C500.453,252.854 499.922,252.974 499.354,252.974Z" style="fill:url(#_Linear1);"/>
        </g>
    </g>
    <defs>
        <linearGradient id="_Linear1" x1="0" y1="0" x2="1" y2="0" gradientUnits="userSpaceOnUse" gradientTransform="matrix(2.5791e-14,-421.199,421.199,2.5791e-14,534.993,411.197)"><stop offset="0" style="stop-color:rgb(191,136,2);stop-opacity:1"/><stop offset="1" style="stop-color:rgb(255,228,0);stop-opacity:1"/></linearGradient>
    </defs>
</svg>
