<?xml version="1.0" encoding="UTF-8" standalone="no"?>
<!DOCTYPE svg PUBLIC "-//W3C//DTD SVG 1.1//EN" "http://www.w3.org/Graphics/SVG/1.1/DTD/svg11.dtd">
<svg width="100%" height="100%" viewBox="0 0 100 100" version="1.1" xmlns="http://www.w3.org/2000/svg" xmlns:xlink="http://www.w3.org/1999/xlink" xml:space="preserve" xmlns:serif="http://www.serif.com/" style="fill-rule:evenodd;clip-rule:evenodd;stroke-linejoin:round;stroke-miterlimit:2;">
    <g transform="matrix(1,0,0,1,-441.999,-745.469)">
        <g transform="matrix(0.281707,0,0,0.281707,339.845,625.772)">
            <path d="M667.281,527.807L635.333,524.297L537.005,622.589C537.516,624.583 537.87,626.641 537.87,628.797C537.87,642.75 526.552,654.063 512.599,654.063C498.641,654.063 487.323,642.75 487.323,628.797C487.323,614.849 498.641,603.536 512.599,603.536C515.333,603.536 517.917,604.083 520.385,604.885L539.339,585.943C531.573,581.047 522.448,578.13 512.599,578.13C484.651,578.13 461.901,600.859 461.901,628.797C461.901,656.74 484.651,679.474 512.599,679.474C540.547,679.474 563.281,656.74 563.281,628.797C563.281,627.37 562.974,626.021 562.859,624.62L592.745,594.745C597.208,605.214 599.693,616.719 599.693,628.797C599.693,676.813 560.625,715.87 512.599,715.87C464.573,715.87 425.49,676.813 425.49,628.797C425.49,580.786 464.573,541.734 512.599,541.734C532.51,541.734 550.844,548.479 565.531,559.76L584.234,541.063C564.672,525.036 539.807,515.281 512.599,515.281C449.979,515.281 399.036,566.208 399.036,628.797C399.036,691.396 449.979,742.323 512.599,742.323C575.219,742.323 626.156,691.396 626.156,628.797C626.156,609.328 621.219,590.99 612.542,574.953L639.021,548.484C653.854,571.729 662.573,599.24 662.573,628.797C662.573,711.469 595.297,778.724 512.599,778.724C429.901,778.724 362.625,711.469 362.625,628.797C362.625,546.135 429.901,478.88 512.599,478.88C549.849,478.88 583.776,492.724 610.005,515.302L618.172,507.141L614.661,475.203L664.984,424.901L670.193,472.297L717.604,477.505L667.281,527.807Z" style="fill:url(#_Linear1);"/>
        </g>
    </g>
    <defs>
        <linearGradient id="_Linear1" x1="0" y1="0" x2="1" y2="0" gradientUnits="userSpaceOnUse" gradientTransform="matrix(2.41519e-14,-394.43,394.43,2.41519e-14,514.638,796.464)"><stop offset="0" style="stop-color:rgb(191,136,2);stop-opacity:1"/><stop offset="1" style="stop-color:rgb(255,228,0);stop-opacity:1"/></linearGradient>
    </defs>
</svg>
