<?xml version="1.0" encoding="UTF-8" standalone="no"?>
<!DOCTYPE svg PUBLIC "-//W3C//DTD SVG 1.1//EN" "http://www.w3.org/Graphics/SVG/1.1/DTD/svg11.dtd">
<svg width="100%" height="100%" viewBox="0 0 120 69" version="1.1" xmlns="http://www.w3.org/2000/svg" xmlns:xlink="http://www.w3.org/1999/xlink" xml:space="preserve" xmlns:serif="http://www.serif.com/" style="fill-rule:evenodd;clip-rule:evenodd;stroke-linejoin:round;stroke-miterlimit:2;">
    <g transform="matrix(1,0,0,1,-428.937,-864.929)">
        <g transform="matrix(0.30693,0,0,0.30693,323.248,609.991)">
            <path d="M507.443,904.74C505.88,904.323 504.667,903.146 504.109,901.615C503.177,899.016 504.526,896.167 507.13,895.198C520.042,890.578 532.333,884.266 543.646,876.458C550.172,871.979 558.432,870.87 565.896,873.542L601.578,886.276L628.823,876.318L674.328,949.161L650.625,970.885C649.51,968.979 648.021,967.245 646.286,965.854L562.839,898.109C546.005,907.62 526.047,910.016 507.443,904.74ZM514.422,1010.77C515.703,1000 508,990.286 497.24,989.036C495.922,988.865 494.568,988.865 493.25,989.005C495.818,978.49 489.427,967.87 478.911,965.229C472.906,963.74 466.521,965.198 461.729,969.151L460.411,970.229C460.307,959.401 451.422,950.724 440.594,950.865C436.115,950.896 431.813,952.495 428.339,955.339L415.807,965.719L404.354,957.318L452.083,878.745C467.807,879.13 483.531,878.609 499.182,877.182C510.292,873.714 522.021,872.745 533.547,874.375C524.453,880.031 514.734,884.714 504.667,888.359C498.245,890.651 494.948,897.693 497.24,904.083C498.594,907.828 501.646,910.677 505.464,911.75C524.276,917.094 544.375,915.323 561.974,906.786L641.703,971.51C646.698,975.573 647.427,982.932 643.37,987.927C639.479,992.719 632.536,993.62 627.542,990.078L567.875,947.219C566.245,946.042 563.984,946.453 562.807,948.089C561.661,949.719 562.042,951.938 563.641,953.12L621.188,994.49C626.708,998.479 627.922,1006.18 623.964,1011.67C620.01,1017.15 612.339,1018.4 606.854,1014.48L552.5,975.432C550.833,974.286 548.542,974.74 547.432,976.37C546.318,978 546.703,980.188 548.26,981.333L596.198,1015.8C601.719,1019.75 602.964,1027.46 599.01,1032.97C595.052,1038.5 587.349,1039.75 581.828,1035.79L536.74,1003.41C535.109,1002.22 532.818,1002.64 531.672,1004.28C530.526,1005.91 530.875,1008.12 532.469,1009.31L567.005,1034.12C571.865,1037.66 572.974,1044.5 569.438,1049.35C565.896,1054.21 559.125,1055.32 554.234,1051.85L536.568,1039.12C541.74,1029.65 538.229,1017.74 528.755,1012.53C524.38,1010.14 519.245,1009.52 514.422,1010.77ZM434.135,991.917C428.932,996.12 421.365,995.391 417.026,990.286C412.651,985.115 413.276,977.38 418.484,972.969L432.99,960.964C438.234,956.693 445.901,957.422 450.24,962.63C454.578,967.833 453.885,975.609 448.646,979.948L434.135,991.917ZM482.036,993.76L455.76,1015.45C450.552,1019.72 442.849,1018.99 438.51,1013.78C434.172,1008.58 434.901,1000.8 440.104,996.464L466.38,974.776C471.589,970.542 479.224,971.302 483.531,976.406C487.901,981.609 487.245,989.385 482.036,993.76ZM482.245,1034.95C477.005,1039.22 469.333,1038.5 464.995,1033.29C460.656,1028.08 461.349,1020.31 466.589,1015.97L487.141,999.031C492.344,994.729 500.052,995.458 504.391,1000.67C508.729,1005.87 508.036,1013.65 502.792,1017.98L482.245,1034.95ZM511.505,1020.24C516.745,1015.97 524.453,1016.7 528.792,1021.91C533.13,1027.11 532.401,1034.88 527.193,1039.22L513.552,1050.47C508.349,1054.73 500.641,1054.01 496.302,1048.8C491.964,1043.59 492.693,1035.82 497.901,1031.48L511.505,1020.24ZM412.755,830.609L456.63,857.266L388.214,969.849L344.344,943.193L412.755,830.609ZM670.479,832.313L735.313,936.115L691.755,963.286L626.917,859.521L670.479,832.313Z" style="fill:url(#_Linear1);"/>
        </g>
    </g>
    <defs>
        <linearGradient id="_Linear1" x1="0" y1="0" x2="1" y2="0" gradientUnits="userSpaceOnUse" gradientTransform="matrix(1.59228e-14,-260.04,260.04,1.59228e-14,534.917,1071.36)"><stop offset="0" style="stop-color:rgb(191,136,2);stop-opacity:1"/><stop offset="1" style="stop-color:rgb(255,228,0);stop-opacity:1"/></linearGradient>
    </defs>
</svg>
